<svg width="74" height="74" viewBox="0 0 74 74" fill="none" xmlns="http://www.w3.org/2000/svg">
<path d="M61.8572 57.6507C65.1782 53.655 67.4881 48.9181 68.5912 43.8409C69.6944 38.7637 69.5585 33.4954 68.195 28.4818C66.8315 23.4682 64.2806 18.8567 60.758 15.0375C57.2353 11.2183 52.8447 8.30371 47.9574 6.54027C43.0701 4.77683 37.83 4.21643 32.6803 4.90648C27.5306 5.59653 22.6229 7.51673 18.3723 10.5046C14.1217 13.4925 10.6532 17.4603 8.26036 22.0722C5.86748 26.684 4.62058 31.8044 4.62513 37.0001C4.62688 44.5532 7.28855 51.8644 12.1431 57.6507L12.0968 57.6901C12.2587 57.8843 12.4437 58.0508 12.6102 58.2427C12.8183 58.4809 13.0426 58.7052 13.2577 58.9365C13.9052 59.6395 14.5712 60.3147 15.2696 60.9484C15.4823 61.1426 15.702 61.323 15.9171 61.508C16.6571 62.1462 17.4179 62.7521 18.2064 63.3164C18.3082 63.3857 18.4007 63.4759 18.5025 63.5476V63.5199C23.9186 67.3313 30.3797 69.3768 37.0025 69.3768C43.6252 69.3768 50.0863 67.3313 55.5025 63.5199V63.5476C55.6042 63.4759 55.6944 63.3857 55.7985 63.3164C56.5847 62.7498 57.3478 62.1462 58.0878 61.508C58.3029 61.323 58.5226 61.1403 58.7353 60.9484C59.4337 60.3124 60.0997 59.6395 60.7472 58.9365C60.9623 58.7052 61.1843 58.4809 61.3947 58.2427C61.5589 58.0508 61.7462 57.8843 61.9081 57.6877L61.8572 57.6507ZM37.0001 18.5001C39.0583 18.5001 41.0702 19.1104 42.7815 20.2539C44.4928 21.3973 45.8266 23.0226 46.6143 24.924C47.4019 26.8255 47.608 28.9179 47.2064 30.9365C46.8049 32.9551 45.8138 34.8093 44.3585 36.2647C42.9031 37.72 41.0489 38.7111 39.0303 39.1127C37.0117 39.5142 34.9193 39.3081 33.0178 38.5205C31.1163 37.7328 29.4911 36.3991 28.3477 34.6878C27.2042 32.9765 26.5939 30.9645 26.5939 28.9064C26.5939 26.1464 27.6903 23.4996 29.6418 21.548C31.5934 19.5965 34.2402 18.5001 37.0001 18.5001ZM18.5163 57.6507C18.5564 54.6144 19.7904 51.7158 21.9512 49.5823C24.112 47.4487 27.026 46.2517 30.0626 46.2501H43.9376C46.9743 46.2517 49.8882 47.4487 52.0491 49.5823C54.2099 51.7158 55.4438 54.6144 55.484 57.6507C50.4123 62.221 43.8272 64.7503 37.0001 64.7503C30.173 64.7503 23.588 62.221 18.5163 57.6507Z" fill="#656565"/>
</svg>
