<svg width="79" height="79" viewBox="0 0 79 79" fill="none" xmlns="http://www.w3.org/2000/svg">
<path d="M70.7702 19.75C70.7701 20.5562 70.4741 21.3344 69.9383 21.9369C69.4026 22.5394 68.6643 22.9243 67.8636 23.0186L67.4785 23.0417H64.6971L60.645 64.2533C60.4244 66.4895 59.3799 68.5638 57.7148 70.0726C56.0496 71.5814 53.8828 72.4169 51.6357 72.4167H27.363C25.1159 72.4169 22.9491 71.5814 21.2839 70.0726C19.6188 68.5638 18.5743 66.4895 18.3537 64.2533L14.3016 23.0417H11.5202C10.6472 23.0417 9.80993 22.6949 9.19262 22.0776C8.57532 21.4603 8.22852 20.623 8.22852 19.75C8.22852 18.877 8.57532 18.0397 9.19262 17.4224C9.80993 16.8051 10.6472 16.4583 11.5202 16.4583H27.9785C27.9785 14.9454 28.2765 13.4473 28.8555 12.0495C29.4345 10.6517 30.2831 9.38168 31.3529 8.31187C32.4227 7.24207 33.6927 6.39345 35.0905 5.81447C36.4883 5.2355 37.9864 4.9375 39.4993 4.9375C41.0123 4.9375 42.5104 5.2355 43.9082 5.81447C45.306 6.39345 46.576 7.24207 47.6458 8.31187C48.7156 9.38168 49.5642 10.6517 50.1432 12.0495C50.7222 13.4473 51.0202 14.9454 51.0202 16.4583H67.4785C68.3515 16.4583 69.1888 16.8051 69.8061 17.4224C70.4234 18.0397 70.7702 18.877 70.7702 19.75ZM46.9056 30.4479C46.309 30.4479 45.7326 30.664 45.283 31.0561C44.8334 31.4482 44.541 31.9899 44.4599 32.5809L44.4369 32.9167V55.9583L44.4599 56.2941C44.5412 56.885 44.8337 57.4265 45.2833 57.8184C45.7328 58.2104 46.3091 58.4263 46.9056 58.4263C47.5021 58.4263 48.0784 58.2104 48.5279 57.8184C48.9775 57.4265 49.27 56.885 49.3513 56.2941L49.3744 55.9583V32.9167L49.3513 32.5809C49.2702 31.9899 48.9778 31.4482 48.5282 31.0561C48.0786 30.664 47.5022 30.4479 46.9056 30.4479ZM32.0931 30.4479C31.4965 30.4479 30.9201 30.664 30.4705 31.0561C30.0209 31.4482 29.7285 31.9899 29.6474 32.5809L29.6243 32.9167V55.9583L29.6474 56.2941C29.7287 56.885 30.0212 57.4265 30.4708 57.8184C30.9203 58.2104 31.4966 58.4263 32.0931 58.4263C32.6896 58.4263 33.2659 58.2104 33.7154 57.8184C34.165 57.4265 34.4575 56.885 34.5388 56.2941L34.5618 55.9583V32.9167L34.5388 32.5809C34.4577 31.9899 34.1653 31.4482 33.7157 31.0561C33.2661 30.664 32.6897 30.4479 32.0931 30.4479ZM39.4993 11.5208C38.1898 11.5208 36.934 12.041 36.008 12.967C35.082 13.893 34.5618 15.1488 34.5618 16.4583H44.4369C44.4369 15.1488 43.9167 13.893 42.9907 12.967C42.0647 12.041 40.8089 11.5208 39.4993 11.5208Z" fill="#DF1010"/>
</svg>
