<svg width="48" height="48" viewBox="0 0 48 48" fill="none" xmlns="http://www.w3.org/2000/svg">
<path d="M48 24C48 30.3652 45.4714 36.4697 40.9706 40.9706C36.4697 45.4714 30.3652 48 24 48C17.6348 48 11.5303 45.4714 7.02944 40.9706C2.52856 36.4697 0 30.3652 0 24C0 17.6348 2.52856 11.5303 7.02944 7.02944C11.5303 2.52856 17.6348 0 24 0C30.3652 0 36.4697 2.52856 40.9706 7.02944C45.4714 11.5303 48 17.6348 48 24ZM25.5 13.5C25.5 13.1022 25.342 12.7206 25.0607 12.4393C24.7794 12.158 24.3978 12 24 12C23.6022 12 23.2206 12.158 22.9393 12.4393C22.658 12.7206 22.5 13.1022 22.5 13.5V30.879L16.062 24.438C15.7803 24.1563 15.3983 23.9981 15 23.9981C14.6017 23.9981 14.2197 24.1563 13.938 24.438C13.6563 24.7197 13.4981 25.1017 13.4981 25.5C13.4981 25.8983 13.6563 26.2803 13.938 26.562L22.938 35.562C23.0773 35.7017 23.2429 35.8125 23.4251 35.8881C23.6073 35.9638 23.8027 36.0027 24 36.0027C24.1973 36.0027 24.3927 35.9638 24.5749 35.8881C24.7571 35.8125 24.9227 35.7017 25.062 35.562L34.062 26.562C34.3437 26.2803 34.5019 25.8983 34.5019 25.5C34.5019 25.1017 34.3437 24.7197 34.062 24.438C33.7803 24.1563 33.3983 23.9981 33 23.9981C32.6017 23.9981 32.2197 24.1563 31.938 24.438L25.5 30.879V13.5Z" fill="#D3D3D3"/>
</svg>
