<svg width="104" height="104" viewBox="0 0 104 104" fill="none" xmlns="http://www.w3.org/2000/svg">
<path d="M103.964 86.3295C104.359 85.2641 59.0909 51.0835 59.0909 51.0835C53.4237 46.9014 50.443 46.8355 44.8388 51.0835C44.8388 51.0835 -0.363012 85.2365 0.0174414 86.2873L0.00830078 86.295C0.0129727 86.3042 0.0204883 86.3105 0.0267852 86.3188C0.410069 87.3636 0.967691 88.3359 1.67596 89.1944C1.97516 89.5572 2.33571 89.8611 2.68244 90.1769L2.66558 90.1899C2.69321 90.2145 2.72997 90.2259 2.7576 90.2505C4.22721 91.5614 6.08052 92.4105 8.13939 92.6528C8.17169 92.6567 8.19769 92.6735 8.22999 92.6774H8.3543C8.66732 92.7073 8.96489 92.7824 9.28543 92.7824H94.7444C98.9525 92.7824 102.518 90.1361 103.934 86.4264C103.951 86.3988 103.977 86.3789 103.992 86.3505L103.964 86.3295Z" fill="#AD6262"/>
<path d="M52.0271 47.1607L0.24707 85.9958V30.9796C0.24707 25.6171 4.59334 21.2708 9.95584 21.2708H94.0984C99.4608 21.2708 103.807 25.6171 103.807 30.9796V85.9958L52.0271 47.1607Z" fill="#BC7979"/>
<path d="M0.851074 27.6039L45.0602 62.3279C50.6401 66.4454 53.5748 66.5104 59.0927 62.3279L103.232 27.6589C102.467 26.2708 101.32 25.1741 100.009 24.2996L100.616 23.8239C99.1343 22.475 97.2402 21.6005 95.1376 21.3746L8.92021 21.3777C6.82356 21.6005 4.92637 22.478 3.44762 23.8239L4.05029 24.2937C2.75436 25.156 1.61848 26.2338 0.851074 27.6039Z" fill="#FFD2D2"/>
<path d="M0.836301 27.6766C0.448129 28.7257 45.0184 62.3795 45.0184 62.3795C50.5983 66.497 53.533 66.562 59.0509 62.3795C59.0509 62.3795 103.556 28.7529 103.181 27.7182L103.191 27.7107C103.186 27.7016 103.179 27.6957 103.172 27.6874C102.795 26.6586 102.246 25.7012 101.549 24.856C101.254 24.4987 100.899 24.1997 100.558 23.8885L100.575 23.8757C100.547 23.8515 100.511 23.8402 100.484 23.816C99.0369 22.5253 97.2122 21.6893 95.1852 21.4506C95.1535 21.4467 95.1277 21.4303 95.096 21.4264H94.9738C94.6656 21.397 94.3725 21.323 94.0569 21.323H9.91436C5.77102 21.323 2.26061 23.9287 0.866566 27.5811C0.84991 27.6083 0.824316 27.628 0.809082 27.6559L0.836301 27.6766Z" fill="#FFCFCF"/>
<path d="M59.191 31.4123H51.3438C51.0123 31.4123 50.6943 31.544 50.4598 31.7785C50.2253 32.0129 50.0936 32.3309 50.0936 32.6625V37.0748C50.0936 37.4064 50.2253 37.7244 50.4598 37.9588C50.6943 38.1933 51.0123 38.325 51.3438 38.325H57.725C58.0566 38.325 58.3746 38.4567 58.6091 38.6912C58.8435 38.9257 58.9752 39.2437 58.9752 39.5752V41.9347C58.9752 42.2663 58.8435 42.5843 58.6091 42.8188C58.3746 43.0533 58.0566 43.185 57.725 43.185H51.3438C51.0123 43.185 50.6943 43.3167 50.4598 43.5512C50.2253 43.7856 50.0936 44.1036 50.0936 44.4352V49.2245C50.0936 49.5561 50.2253 49.8741 50.4598 50.1085C50.6943 50.343 51.0123 50.4747 51.3438 50.4747H59.7361C60.0677 50.4747 60.3857 50.6065 60.6202 50.8409C60.8547 51.0754 60.9864 51.3934 60.9864 51.725V54.252C60.9864 54.5836 60.8547 54.9016 60.6202 55.1361C60.3857 55.3706 60.0677 55.5023 59.7361 55.5023H44.3474C44.0158 55.5023 43.6978 55.3706 43.4634 55.1361C43.2289 54.9016 43.0972 54.5836 43.0972 54.252V27.7186C43.0972 27.3871 43.2289 27.0691 43.4634 26.8346C43.6978 26.6001 44.0158 26.4684 44.3474 26.4684H59.5432C60.3047 26.4684 60.8893 27.1432 60.7806 27.897L60.4286 30.3402C60.3857 30.6378 60.237 30.9101 60.0097 31.107C59.7824 31.3039 59.4917 31.4123 59.191 31.4123Z" fill="#FFCFCF"/>
</svg>
