<svg width="45" height="45" viewBox="0 0 45 45" fill="none" xmlns="http://www.w3.org/2000/svg">
<g clip-path="url(#clip0_51_247)">
<path d="M45.0002 22.6375C45.0002 10.1328 34.9256 -0.00366211 22.4996 -0.00366211C10.0681 -0.000849542 -0.0065918 10.1328 -0.0065918 22.6403C-0.0065918 33.9384 8.223 43.3043 18.9783 45.003V29.1824H13.2688V22.6403H18.9839V17.648C18.9839 11.9751 22.3449 8.84186 27.4835 8.84186C29.9473 8.84186 32.5208 9.28344 32.5208 9.28344V14.8523H29.6829C26.8901 14.8523 26.0182 16.5989 26.0182 18.3905V22.6375H32.2565L31.2608 29.1795H26.0154V45.0002C36.7706 43.3014 45.0002 33.9356 45.0002 22.6375Z" fill="#0013BC"/>
</g>
<defs>
<clipPath id="clip0_51_247">
<rect width="45.0001" height="45" fill="white"/>
</clipPath>
</defs>
</svg>
