<svg width="143" height="135" viewBox="0 0 143 135" fill="none" xmlns="http://www.w3.org/2000/svg">
<path opacity="0.2" d="M105.258 30.9825L88.9868 23.625L105.258 16.2675L112.618 0L119.977 16.2675L136.248 23.625L119.977 30.9825L112.618 47.25L105.258 30.9825ZM131.387 72.36L126.121 60.75L120.855 72.36L109.242 77.625L120.855 82.89L126.121 94.5L131.387 82.89L143 77.625L131.387 72.36ZM97.3588 83.4975L110.457 93.42L93.5779 122.647L78.4542 116.302C77.1039 117.18 75.6185 118.058 74.1331 118.8L72.1077 135H38.3494L36.3239 118.732C34.8385 117.99 33.4207 117.18 32.0028 116.235L16.8791 122.58L0 93.3525L13.0982 83.43C13.0307 82.6875 13.0307 81.81 13.0307 81C13.0307 80.19 13.0307 79.3125 13.0982 78.5025L0 68.58L16.8791 39.3525L32.0028 45.6975C33.3532 44.82 34.8385 43.9425 36.3239 43.2L38.3494 27H72.1077L74.1331 43.2675C75.6185 44.01 77.0364 44.82 78.4542 45.765L93.5779 39.42L110.457 68.6475L97.3588 78.57C97.4263 79.38 97.4263 80.19 97.4263 81.0675C97.4263 81.945 97.4263 82.6875 97.3588 83.4975ZM75.4835 81C75.4835 69.795 66.4363 60.75 55.2285 60.75C44.0208 60.75 34.9736 69.795 34.9736 81C34.9736 92.205 44.0208 101.25 55.2285 101.25C66.4363 101.25 75.4835 92.205 75.4835 81Z" fill="#D21C1C"/>
</svg>
