<svg width="87" height="87" viewBox="0 0 87 87" fill="none" xmlns="http://www.w3.org/2000/svg">
<g filter="url(#filter0_d_62_327)">
<path fill-rule="evenodd" clip-rule="evenodd" d="M43.5 0C21.6852 0 4 17.6852 4 39.5C4 61.3148 21.6852 79 43.5 79C65.3148 79 83 61.3148 83 39.5C83 17.6852 65.3148 0 43.5 0ZM47.0909 53.8636C47.0909 54.816 46.7126 55.7294 46.0392 56.4028C45.3657 57.0762 44.4524 57.4545 43.5 57.4545C42.5476 57.4545 41.6343 57.0762 40.9608 56.4028C40.2874 55.7294 39.9091 54.816 39.9091 53.8636V43.0909H29.1364C28.184 43.0909 27.2706 42.7126 26.5972 42.0392C25.9238 41.3657 25.5455 40.4524 25.5455 39.5C25.5455 38.5476 25.9238 37.6343 26.5972 36.9608C27.2706 36.2874 28.184 35.9091 29.1364 35.9091H39.9091V25.1364C39.9091 24.184 40.2874 23.2706 40.9608 22.5972C41.6343 21.9238 42.5476 21.5455 43.5 21.5455C44.4524 21.5455 45.3657 21.9238 46.0392 22.5972C46.7126 23.2706 47.0909 24.184 47.0909 25.1364V35.9091H57.8636C58.816 35.9091 59.7294 36.2874 60.4028 36.9608C61.0762 37.6343 61.4545 38.5476 61.4545 39.5C61.4545 40.4524 61.0762 41.3657 60.4028 42.0392C59.7294 42.7126 58.816 43.0909 57.8636 43.0909H47.0909V53.8636Z" fill="#8A8A8A"/>
</g>
<defs>
<filter id="filter0_d_62_327" x="0" y="0" width="87" height="87" filterUnits="userSpaceOnUse" color-interpolation-filters="sRGB">
<feFlood flood-opacity="0" result="BackgroundImageFix"/>
<feColorMatrix in="SourceAlpha" type="matrix" values="0 0 0 0 0 0 0 0 0 0 0 0 0 0 0 0 0 0 127 0" result="hardAlpha"/>
<feOffset dy="4"/>
<feGaussianBlur stdDeviation="2"/>
<feComposite in2="hardAlpha" operator="out"/>
<feColorMatrix type="matrix" values="0 0 0 0 0 0 0 0 0 0 0 0 0 0 0 0 0 0 0.25 0"/>
<feBlend mode="normal" in2="BackgroundImageFix" result="effect1_dropShadow_62_327"/>
<feBlend mode="normal" in="SourceGraphic" in2="effect1_dropShadow_62_327" result="shape"/>
</filter>
</defs>
</svg>
