<svg width="120" height="120" viewBox="0 0 120 120" fill="none" xmlns="http://www.w3.org/2000/svg">
<path d="M108.6 43.3334C104.536 44.8628 100.142 45.3012 95.8551 44.6048C91.5685 43.9084 87.5391 42.1015 84.1678 39.364C80.7965 36.6265 78.2009 33.0538 76.6393 29.0015C75.0777 24.9493 74.6046 20.5587 75.267 16.2667C63.9118 12.9477 51.7887 13.3808 40.6992 17.5018C29.6097 21.6228 20.1458 29.2116 13.7136 39.1406C7.28144 49.0697 4.22438 60.809 4.99668 72.6142C5.76899 84.4193 10.3294 95.6603 18.0004 104.667L19.0004 105.833H101L102 104.667C109.109 96.3044 113.544 86.0014 114.733 75.0906C115.921 64.1798 113.808 53.1634 108.667 43.4667L108.6 43.3334ZM56.667 20.9667H60.0004C61.2337 20.9667 62.3337 20.9667 63.3337 21.1334V32.8H56.667V20.9667ZM23.3337 73.0334H11.867C11.867 71.7334 11.7004 70.4667 11.7004 69.1334V66.3667H23.3337V73.0334ZM31.7004 45.8334L23.3337 37.6334C24.8114 35.9475 26.4041 34.3659 28.1004 32.9L36.3004 41.1L31.7004 45.8334ZM67.1004 76.4667C65.8066 77.7724 64.178 78.6962 62.3934 79.1367C60.6089 79.5771 58.7374 79.5172 56.9847 78.9635C55.232 78.4098 53.6658 77.3837 52.4582 75.998C51.2505 74.6123 50.4482 72.9205 50.1393 71.1086C49.8304 69.2966 50.0269 67.4345 50.7072 65.727C51.3875 64.0194 52.5252 62.5323 53.9955 61.4292C55.4658 60.326 57.2116 59.6495 59.0413 59.4738C60.871 59.2981 62.7137 59.6301 64.367 60.4334L84.067 41.0667L88.767 45.7667L69.0337 65.1334C69.8923 67.001 70.1546 69.0878 69.7848 71.1097C69.415 73.1317 68.4311 74.9906 66.967 76.4334L67.1004 76.4667ZM108.267 73.1334H96.4004V66.4667H108.167V69.2334C108.167 70.1667 108.234 71.7334 108.134 73.0334L108.267 73.1334Z" fill="url(#paint0_radial_53_392)"/>
<path d="M99.9997 36.6667C109.204 36.6667 116.666 29.2048 116.666 20C116.666 10.7953 109.204 3.33337 99.9997 3.33337C90.7949 3.33337 83.333 10.7953 83.333 20C83.333 29.2048 90.7949 36.6667 99.9997 36.6667Z" fill="url(#paint1_radial_53_392)"/>
<defs>
<radialGradient id="paint0_radial_53_392" cx="0" cy="0" r="1" gradientUnits="userSpaceOnUse" gradientTransform="translate(59.9673 59.9463) rotate(90) scale(45.8871 55.0879)">
<stop/>
<stop offset="0.916667" stop-color="#B63030"/>
</radialGradient>
<radialGradient id="paint1_radial_53_392" cx="0" cy="0" r="1" gradientUnits="userSpaceOnUse" gradientTransform="translate(99.9997 20) rotate(90) scale(16.6667)">
<stop/>
<stop offset="0.916667" stop-color="#B63030"/>
</radialGradient>
</defs>
</svg>
