<svg width="78" height="78" viewBox="0 0 78 78" fill="none" xmlns="http://www.w3.org/2000/svg">
<path d="M38.75 0C17.36 0 0 17.36 0 38.75C0 60.14 17.36 77.5 38.75 77.5C60.14 77.5 77.5 60.14 77.5 38.75C77.5 17.36 60.14 0 38.75 0ZM38.9825 65.875V58.0863H38.75C33.79 58.0863 28.83 56.1875 25.0325 52.4288C21.8784 49.2713 19.9095 45.1229 19.4577 40.6829C19.006 36.243 20.099 31.783 22.5525 28.055L26.815 32.3175C24.0638 37.4713 24.7613 43.9813 29.1013 48.3213C31.8138 51.0338 35.3788 52.3125 38.9438 52.235V43.9425L49.91 54.9088L38.9825 65.875ZM54.9088 49.445L50.6463 45.1825C53.3975 40.0288 52.7 33.5188 48.36 29.1788C47.1021 27.9105 45.6049 26.9046 43.9553 26.2194C42.3056 25.5343 40.5363 25.1835 38.75 25.1875H38.5175V33.5188L27.5513 22.5913L38.5175 11.625V19.4525C43.555 19.375 48.6313 21.1963 52.4675 25.0713C59.055 31.6588 59.8688 41.9275 54.9088 49.445Z" fill="#00B851"/>
</svg>
