<svg width="120" height="120" viewBox="0 0 120 120" fill="none" xmlns="http://www.w3.org/2000/svg">
<g clip-path="url(#clip0_54_459)">
<path d="M116.35 98.715L56.62 38.99C53.835 36.205 52.41 32.335 52.705 28.415C53.28 20.99 50.73 13.37 45.06 7.685C39.91 2.545 33.18 0 26.445 0C23.91 0 21.37 0.36 18.92 1.08L34.77 16.93C36.49 24.875 24.975 36.52 16.935 34.765L1.09 18.915C0.365 21.375 0 23.915 0 26.46C0 33.195 2.55 39.915 7.69 45.065C13.365 50.745 20.99 53.295 28.42 52.715C32.335 52.415 36.205 53.845 38.985 56.63L98.715 116.35C101.055 118.69 104.23 120 107.53 120C114.37 120 120 114.46 120 107.53C120 104.34 118.78 101.15 116.35 98.715ZM107.5 112.5C104.735 112.5 102.5 110.26 102.5 107.5C102.5 104.74 104.735 102.5 107.5 102.5C110.265 102.5 112.5 104.74 112.5 107.5C112.5 110.26 110.265 112.5 107.5 112.5ZM67.825 36.055L94.46 9.465C97.38 6.545 101.2 5.08 105.025 5.08C108.845 5.08 112.67 6.54 115.59 9.465C118.535 12.4 120 16.25 120 20.09C120 23.91 118.545 27.73 115.635 30.64L89.005 57.23L83.81 52.035L109.145 26.74C109.99 25.9 109.98 24.535 109.14 23.695C108.295 22.85 106.935 22.845 106.09 23.69L80.75 48.98L76.3 44.53L101.635 19.235C102.48 18.39 102.475 17.03 101.635 16.18C100.79 15.34 99.42 15.33 98.58 16.18L73.245 41.47L67.825 36.055ZM50.175 81.955L24.04 107.88C22.905 109.025 21.925 110.32 21.17 111.75L19.665 114.65L9.165 120L5 115.83L10.125 105.1L13.025 103.59C14.455 102.84 15.83 101.945 16.975 100.8L43.11 74.875L50.175 81.955Z" fill="black"/>
<path d="M116.35 98.715L56.62 38.99C53.835 36.205 52.41 32.335 52.705 28.415C53.28 20.99 50.73 13.37 45.06 7.685C39.91 2.545 33.18 0 26.445 0C23.91 0 21.37 0.36 18.92 1.08L34.77 16.93C36.49 24.875 24.975 36.52 16.935 34.765L1.09 18.915C0.365 21.375 0 23.915 0 26.46C0 33.195 2.55 39.915 7.69 45.065C13.365 50.745 20.99 53.295 28.42 52.715C32.335 52.415 36.205 53.845 38.985 56.63L98.715 116.35C101.055 118.69 104.23 120 107.53 120C114.37 120 120 114.46 120 107.53C120 104.34 118.78 101.15 116.35 98.715ZM107.5 112.5C104.735 112.5 102.5 110.26 102.5 107.5C102.5 104.74 104.735 102.5 107.5 102.5C110.265 102.5 112.5 104.74 112.5 107.5C112.5 110.26 110.265 112.5 107.5 112.5ZM67.825 36.055L94.46 9.465C97.38 6.545 101.2 5.08 105.025 5.08C108.845 5.08 112.67 6.54 115.59 9.465C118.535 12.4 120 16.25 120 20.09C120 23.91 118.545 27.73 115.635 30.64L89.005 57.23L83.81 52.035L109.145 26.74C109.99 25.9 109.98 24.535 109.14 23.695C108.295 22.85 106.935 22.845 106.09 23.69L80.75 48.98L76.3 44.53L101.635 19.235C102.48 18.39 102.475 17.03 101.635 16.18C100.79 15.34 99.42 15.33 98.58 16.18L73.245 41.47L67.825 36.055ZM50.175 81.955L24.04 107.88C22.905 109.025 21.925 110.32 21.17 111.75L19.665 114.65L9.165 120L5 115.83L10.125 105.1L13.025 103.59C14.455 102.84 15.83 101.945 16.975 100.8L43.11 74.875L50.175 81.955Z" fill="url(#paint0_radial_54_459)"/>
</g>
<defs>
<radialGradient id="paint0_radial_54_459" cx="0" cy="0" r="1" gradientUnits="userSpaceOnUse" gradientTransform="translate(60 60) rotate(90) scale(60)">
<stop offset="0.328125"/>
<stop offset="0.734375" stop-color="#B63030"/>
</radialGradient>
<clipPath id="clip0_54_459">
<rect width="120" height="120" fill="white"/>
</clipPath>
</defs>
</svg>
