<svg width="45" height="47" viewBox="0 0 45 47" fill="none" xmlns="http://www.w3.org/2000/svg">
<path d="M22.5002 2C10.075 2 0.000244141 11.8913 0.000244141 24.0902C0.000244141 36.2891 10.075 46.1803 22.5002 46.1803C34.9255 46.1803 45.0002 36.2891 45.0002 24.0902C45.0002 11.8913 34.9255 2 22.5002 2ZM33.3133 18.6514C33.3284 18.8832 33.3284 19.1248 33.3284 19.3615C33.3284 26.6 27.7134 34.938 17.4528 34.938C14.2887 34.938 11.3557 34.0357 8.88473 32.4825C9.33674 32.5318 9.76866 32.5515 10.2307 32.5515C12.8423 32.5515 15.243 31.6837 17.1565 30.2143C14.7056 30.165 12.6464 28.5871 11.9433 26.4175C12.8021 26.5408 13.5756 26.5408 14.4595 26.3189C13.1975 26.0672 12.0632 25.3943 11.2493 24.4145C10.4354 23.4348 9.99209 22.2086 9.99466 20.9443V20.8753C10.7329 21.2845 11.6018 21.536 12.5108 21.5705C11.7467 21.0705 11.12 20.3931 10.6863 19.5983C10.2526 18.8036 10.0254 17.916 10.0248 17.0144C10.0248 15.9937 10.296 15.0618 10.7832 14.2531C12.1839 15.9461 13.9318 17.3307 15.9133 18.317C17.8948 19.3033 20.0655 19.8691 22.2843 19.9778C21.4958 16.2551 24.3284 13.2423 27.7335 13.2423C29.3406 13.2423 30.7871 13.903 31.8066 14.9681C33.0672 14.7364 34.2726 14.2729 35.3473 13.6516C34.9305 14.9188 34.0566 15.9888 32.8965 16.6643C34.0215 16.546 35.1063 16.2403 36.1107 15.8113C35.3524 16.9059 34.4031 17.8773 33.3133 18.6514Z" fill="#009DED"/>
</svg>
