<svg width="112" height="112" viewBox="0 0 112 112" fill="none" xmlns="http://www.w3.org/2000/svg">
<path d="M97.1693 84.448C81.1207 80.7427 66.178 77.4947 73.416 63.8307C95.438 22.2413 79.254 0 56 0C32.2887 0 16.5013 23.0953 38.584 63.8307C46.0367 77.574 30.534 80.822 14.8307 84.448C0.928666 87.6587 0 94.4487 0 106.209L0.0233333 112H48.944L52.2293 98H59.766L63.0513 112H111.972L111.995 106.209C112 94.4487 111.071 87.6587 97.1693 84.448V84.448ZM58.758 93.3333H53.326L49.0793 84H63.0513L58.758 93.3333Z" fill="url(#paint0_linear_29_111)"/>
<defs>
<linearGradient id="paint0_linear_29_111" x1="55.9977" y1="0" x2="55.9977" y2="112" gradientUnits="userSpaceOnUse">
<stop stop-color="#C2B8B8"/>
<stop offset="1" stop-color="#DD4141"/>
</linearGradient>
</defs>
</svg>
