<svg width="105" height="105" viewBox="0 0 105 105" fill="none" xmlns="http://www.w3.org/2000/svg">
<path d="M60.7906 46.4756L66.7844 37.4894C68.3156 35.1925 71.4219 34.5713 73.7188 36.1025C76.0113 37.6338 76.6369 40.74 75.1012 43.0369L69.1119 52.0231C67.5806 54.32 64.4744 54.9412 62.1775 53.41C59.8806 51.8787 59.2594 48.7725 60.7906 46.4756ZM52.5612 43.4831C54.8581 45.0187 57.9688 44.3931 59.5044 42.0962L65.555 33.0225C67.095 30.7212 66.4694 27.6106 64.1681 26.075C61.8713 24.5394 58.7606 25.165 57.225 27.4662L51.1744 36.54C49.6344 38.8413 50.2556 41.9519 52.5612 43.4831ZM83.2169 60.76L77.9144 68.7094C76.5056 70.8225 77.0788 73.6794 79.1919 75.0881C81.305 76.4969 84.1619 75.9238 85.5706 73.8106L90.8688 65.8613C92.2819 63.7481 91.7087 60.8913 89.5956 59.4825C87.4825 58.0737 84.6256 58.6425 83.2169 60.76ZM69.7812 57.085C68.25 59.3731 68.8712 62.4706 71.1594 63.9975C73.4519 65.5244 76.545 64.9075 78.0719 62.615L83.8119 54.005C85.3431 51.7125 84.7219 48.6194 82.4294 47.0925C80.1413 45.5656 77.0481 46.1825 75.5212 48.475L69.7812 57.085ZM94.5656 105C91.9012 105 89.2281 103.985 87.1894 101.946L56.4681 70.6913C61.2281 65.4281 58.9181 56.3456 51.2969 54.9937L37.8481 52.605L33.2194 47.9762C30.59 45.3512 26.9763 43.9688 23.275 44.1656C17.2288 44.4894 11.0819 42.3413 6.46625 37.7256C2.1525 33.4075 0 27.755 0 22.0981C0 19.6481 0.4025 17.1981 1.21188 14.8575L15.2731 28.9188C20.755 29.2425 29.2381 20.7594 28.9144 15.2731L14.8575 1.21188C17.1981 0.4025 19.6438 0 22.0938 0C27.7506 0 33.4075 2.15687 37.7212 6.47062C42.3369 11.0862 44.4806 17.2331 44.1613 23.2794C43.9644 26.9806 45.3469 30.6031 47.9719 33.2238L48.09 33.3419C42.6519 42.455 49.9844 48.6981 55.9913 48.4663C54.9106 53.6331 60.4406 59.0144 65.1875 59.0144C64.0106 63.5644 67.5325 68.3112 73.0144 69.3875C70.805 77.3587 82.8931 85.8681 89.8887 75.1406L101.946 87.1937C103.985 89.2325 105 91.9012 105 94.57C105 100.327 100.336 105 94.5656 105ZM98.4375 94.0625C98.4375 91.6475 96.4775 89.6875 94.0581 89.6875C91.6431 89.6875 89.6831 91.6475 89.6831 94.0625C89.6831 96.4775 91.6431 98.4375 94.0581 98.4375C96.4775 98.4375 98.4375 96.4775 98.4375 94.0625ZM56.3019 76.8294C53.3838 73.8194 48.86 73.5963 40.6219 73.0494C39.3706 72.9663 38.6006 73.7712 38.5 74.9875L36.4963 93.3975C36.4963 93.3975 48.72 101.658 53.7337 105C58.3887 96.5956 65.5419 96.0881 70.8881 91.8662L56.3019 76.8294ZM49.2056 69.4269C55.58 69.4269 56.5469 60.3969 50.5312 59.3294C27.9081 55.3088 29.0981 55.44 28.3544 55.44C25.5763 55.44 23.1656 57.4219 22.6275 60.1562L20.6762 77.42C20.4094 80.1806 21.3106 82.565 23.4456 84.1225C25.5763 85.6712 32.3094 90.4619 32.3094 90.4619C32.3094 90.4619 33.7444 78.0587 34.1469 74.4887C34.5537 70.9231 36.5575 68.46 40.3769 68.6481C40.7794 68.6656 48.51 69.4269 49.2056 69.4269Z" fill="#417E5C"/>
</svg>
